<svg xmlns="http://www.w3.org/2000/svg" data-name="Layer 2" viewBox="0 0 293.35 293.35" id="instagram"><rect width="293.35" height="293.35" fill="#3c3c3b"></rect><path fill="#fff" d="m192.06,59.68h-90.77c-25.07,0-45.47,20.4-45.47,45.47v83.04c0,25.07,20.4,45.47,45.47,45.47h90.77c25.07,0,45.47-20.4,45.47-45.47v-83.04c0-25.07-20.4-45.47-45.47-45.47Zm-120.2,45.47c0-16.23,13.2-29.43,29.43-29.43h90.77c16.23,0,29.43,13.2,29.43,29.43v83.04c0,16.23-13.2,29.43-29.43,29.43h-90.77c-16.23,0-29.43-13.2-29.43-29.43v-83.04Z"></path><path fill="#fff" d="M146.67 188.97c23.32 0 42.3-18.98 42.3-42.3s-18.97-42.3-42.3-42.3-42.3 18.98-42.3 42.3 18.97 42.3 42.3 42.3zm0-68.55c14.48 0 26.26 11.78 26.26 26.26s-11.78 26.26-26.26 26.26-26.26-11.78-26.26-26.26 11.78-26.26 26.26-26.26zM192.9 111.2c6.28 0 11.4-5.11 11.4-11.4s-5.11-11.4-11.4-11.4-11.4 5.11-11.4 11.4 5.11 11.4 11.4 11.4z"></path></svg>