<svg xmlns="http://www.w3.org/2000/svg" data-name="Layer 2" viewBox="0 0 293.35 293.35" id="pinterest"><rect width="293.35" height="293.35" fill="#3c3c3b"></rect><path fill="#fff" fill-rule="evenodd" d="m133.29,186.78c-.18.61-.34,1.12-.48,1.63-7.76,30.4-8.62,37.15-16.59,51.27-3.8,6.71-8.09,13.07-12.82,19.15-.54.69-1.04,1.58-2.11,1.36-1.17-.25-1.26-1.3-1.39-2.24-1.28-9.24-1.98-18.5-1.67-27.83.4-12.15,1.91-16.32,17.57-82.18.23-1-.03-1.84-.36-2.75-3.75-10.11-4.49-20.38-1.22-30.78,7.09-22.46,32.56-24.19,37.01-5.65,2.74,11.46-4.51,26.47-10.09,48.64-4.61,18.3,16.92,31.3,35.33,17.95,16.98-12.31,23.57-41.83,22.31-62.75-2.47-41.71-48.21-50.73-77.23-37.3-33.27,15.38-40.83,56.62-25.81,75.46,1.91,2.4,5.49,3.86,4.86,6.29-.97,3.77-1.82,7.58-2.86,11.33-.78,2.79-5.23,3.81-8.06,2.66-5.54-2.24-10.15-5.77-13.89-10.41-12.76-15.8-16.41-47.04.46-73.49,18.69-29.3,53.44-41.16,85.18-37.56,37.9,4.31,61.86,30.21,66.34,59.59,2.04,13.38.57,46.39-18.21,69.71-21.61,26.8-56.65,28.58-72.81,12.13-1.25-1.26-2.24-2.74-3.46-4.25Z"></path></svg>