<svg xmlns="http://www.w3.org/2000/svg" data-name="Layer 2" viewBox="0 0 293.35 293.35" id="telegram"><rect width="293.35" height="293.35" fill="#3c3c3b"></rect><path fill="#fefffc" d="m57.27,141.67c.41-.21.82-.4,1.22-.59,6.96-3.23,14.02-6.25,21.08-9.27.38,0,1.02-.44,1.38-.59l1.63-.7c1.05-.45,2.09-.89,3.14-1.34,2.09-.89,4.18-1.79,6.28-2.68,4.18-1.79,8.37-3.58,12.55-5.37,8.37-3.58,16.74-7.16,25.11-10.74,8.37-3.58,16.74-7.16,25.11-10.74,8.37-3.58,16.74-7.16,25.11-10.74,8.37-3.58,16.74-7.16,25.11-10.74,1.86-.8,3.88-1.99,5.87-2.34,1.68-.3,3.31-.88,4.99-1.2,3.2-.61,6.72-.86,9.78.47,1.06.46,2.03,1.11,2.85,1.92,3.88,3.85,3.34,10.16,2.52,15.56-5.73,37.68-11.45,75.36-17.18,113.04-.79,5.17-1.85,10.84-5.93,14.11-3.45,2.76-8.37,3.08-12.63,1.9-4.26-1.18-8.03-3.66-11.71-6.1-15.31-10.13-30.61-20.27-45.92-30.4-3.64-2.41-7.69-5.55-7.65-9.91.03-2.63,1.6-4.97,3.2-7.06,13.29-17.34,32.49-29.27,46.77-45.82,2.01-2.33,3.6-6.55.83-7.89-1.64-.8-3.54.28-5.04,1.33-18.87,13.11-37.73,26.22-56.6,39.33-6.16,4.28-12.61,8.67-20.03,9.73-6.63.94-13.32-.91-19.75-2.79-5.38-1.58-10.76-3.21-16.12-4.88-2.84-.89-5.78-1.84-7.98-3.84-2.2-2-3.46-5.37-2.14-8.04.83-1.67,2.45-2.74,4.14-3.59Z"></path></svg>